HIERARCHY
ROOT hip
{
	OFFSET 0.000000 0.000000 0.000000 
	CHANNELS 6 Xposition Yposition Zposition Xrotation Zrotation Yrotation
	JOINT abdomen
	{
		OFFSET 0.000000 3.402643 0.000000 
		CHANNELS 3 Xrotation Zrotation Yrotation
		JOINT chest
		{
			OFFSET 0.000000 8.438565 -0.680529 
			CHANNELS 3 Xrotation Zrotation Yrotation
			JOINT neck
			{
				OFFSET 0.000000 10.207942 -0.272212 
				CHANNELS 3 Xrotation Zrotation Yrotation
				JOINT head
				{
					OFFSET 0.000000 3.130431 0.000000 
					CHANNELS 3 Xrotation Zrotation Yrotation
					End Site
					{
						OFFSET 0.000000 3.130435 0.000000 
					}
				}
			}
			JOINT lCollar
			{
				OFFSET 3.470700 6.669187 -0.816635 
				CHANNELS 3 Yrotation Zrotation Xrotation
				JOINT lShldr
				{
					OFFSET 3.198488 0.000000 0.000000 
					CHANNELS 3 Zrotation Yrotation Xrotation
					JOINT lForeArm
					{
						OFFSET 10.139888 0.000000 0.000000 
						CHANNELS 3 Yrotation Zrotation Xrotation
						JOINT lHand
						{
							OFFSET 8.370511 0.000000 0.000000 
							CHANNELS 3 Zrotation Yrotation Xrotation
							End Site
							{
								OFFSET 4.083176 0.000000 0.000000 
							}
						}
					}
				}
			}
			JOINT rCollar
			{
				OFFSET -3.470700 6.669187 -0.816635 
				CHANNELS 3 Yrotation Zrotation Xrotation
				JOINT rShldr
				{
					OFFSET -3.198488 0.000000 0.000000 
					CHANNELS 3 Zrotation Yrotation Xrotation
					JOINT rForeArm
					{
						OFFSET -10.139888 0.000000 0.000000 
						CHANNELS 3 Yrotation Zrotation Xrotation
						JOINT rHand
						{
							OFFSET -8.370511 0.000000 0.000000 
							CHANNELS 3 Zrotation Yrotation Xrotation
							End Site
							{
								OFFSET -4.083176 0.000000 0.000000 
							}
						}
					}
				}
			}
		}
	}
	JOINT lThigh
	{
		OFFSET 5.308129 -1.633274 1.361059 
		CHANNELS 3 Xrotation Zrotation Yrotation
		JOINT lShin
		{
			OFFSET -2.041588 -20.007561 0.000000 
			CHANNELS 3 Xrotation Zrotation Yrotation
			JOINT lFoot
			{
				OFFSET 0.000000 -19.190928 -1.224953 
				CHANNELS 3 Xrotation Yrotation Zrotation
				End Site
				{
					OFFSET 0.000000 -2.449906 4.627600 
				}
			}
		}
	}
	JOINT rThigh
	{
		OFFSET -5.308129 -1.633274 1.361059 
		CHANNELS 3 Xrotation Zrotation Yrotation
		JOINT rShin
		{
			OFFSET 2.041588 -20.007561 0.000000 
			CHANNELS 3 Xrotation Zrotation Yrotation
			JOINT rFoot
			{
				OFFSET 0.000000 -19.190928 -1.224953 
				CHANNELS 3 Xrotation Yrotation Zrotation
				End Site
				{
					OFFSET 0.000000 -2.449906 4.627600 
				}
			}
		}
	}
}
MOTION
Frames: 20
Frame Time: 0.016667
4.607608 41.390301 -15.019690 5.841270 1.262940 -4.567890 -20.787901 2.451650 -4.784310 16.493500 6.955300 -2.162680 17.548700 5.646250 0.698609 15.096800 7.646160 0.996997 2.000000 -2.000000 0.000000 -91.179901 -32.565701 -162.177002 123.417999 -0.134172 0.132065 0.045867 -0.019858 -144.031006 -2.000000 2.000000 0.000000 -103.668999 167.524994 -1.882420 -134.102005 0.126496 0.081410 -0.059692 0.040866 -151.677994 0.252008 -2.919233 -0.960431 35.963100 3.425629 2.340698 -21.052969 6.547456 2.758500 -33.668777 -5.124771 1.919345 51.510555 -1.634389 -3.601944 -10.774734 5.451633 0.393675 
4.545306 41.760803 -14.639088 5.949070 1.408390 -6.630400 -20.732201 2.641470 -4.862150 16.719500 6.986410 -2.155770 17.529200 4.840590 1.179000 15.060000 7.388200 1.236020 2.000000 -2.000000 0.000000 -91.599998 -32.546600 -162.382004 123.085999 -0.134882 0.132530 0.045764 -0.019016 -143.727997 -2.000000 2.000000 0.000000 -103.960999 167.085007 -1.861790 -133.798996 0.126979 0.081876 -0.060300 0.043109 -152.507996 0.054252 -3.175034 -0.076032 36.851639 3.389445 2.398856 -18.052864 6.012135 2.189124 -33.281178 -4.770588 2.321492 50.234123 -1.715355 -3.539996 -8.614267 6.565623 0.430622 
4.528612 42.373463 -14.203326 6.086640 1.689650 -8.862610 -20.785400 2.791950 -4.850370 16.632401 6.810320 -2.125250 17.758699 4.101180 1.735250 15.103500 7.176040 1.502830 2.000000 -2.000000 0.000000 -91.638702 -32.224998 -162.666000 122.685997 -0.135742 0.133086 0.045758 -0.018962 -143.709000 -2.000000 2.000000 0.000000 -104.313004 166.742004 -2.319920 -133.085999 0.128126 0.082962 -0.061859 0.048351 -154.460999 -0.918751 -3.203737 1.262006 38.155491 3.226913 2.527731 -12.171381 3.763384 1.231341 -32.504894 -4.635649 2.839891 47.945992 -1.844698 -3.417238 -5.073472 7.018149 0.083852 
4.511919 42.985989 -13.767680 6.204930 1.990230 -11.092000 -20.848301 2.932940 -4.835600 16.555201 6.634320 -2.093050 17.981001 3.346800 2.287350 15.137500 6.973780 1.761430 2.000000 -2.000000 0.000000 -91.677498 -31.903400 -162.960007 122.286003 -0.136605 0.133636 0.045755 -0.018935 -143.699005 -2.000000 2.000000 0.000000 -104.674004 166.399994 -2.778060 -132.382996 0.129270 0.084019 -0.063597 0.053537 -156.414001 -1.932472 -3.215295 2.593477 39.564098 3.072858 2.643613 -6.393904 1.474036 0.495123 -31.728193 -4.513463 3.372114 45.628593 -1.952208 -3.288881 -1.523216 7.459428 -0.266559 
4.537307 43.594902 -13.345063 6.275000 2.387970 -13.409200 -20.736700 3.045640 -4.702010 16.499500 6.224720 -2.012420 18.054399 2.437800 2.831000 15.151000 6.733730 2.028340 2.000000 -2.000000 0.000000 -91.102898 -32.403599 -163.895996 121.572998 -0.138152 0.134600 0.045814 -0.019424 -143.875000 -2.000000 2.000000 0.000000 -105.171997 165.694000 -3.645450 -131.298996 0.131060 0.085621 -0.075638 0.059576 -158.718994 -3.972424 -3.153258 3.401176 41.683826 2.831417 2.800487 1.187486 -1.672347 0.581931 -31.163353 -4.500379 4.262168 43.583088 -2.077453 -3.154095 1.546583 6.865219 -0.627619 
4.562706 44.203960 -12.922446 6.335640 2.785640 -15.725900 -20.634501 3.154720 -4.577570 16.443600 5.815170 -1.940710 18.122999 1.531370 3.381230 15.164500 6.484130 2.283500 2.000000 -2.000000 0.000000 -90.528297 -32.903801 -164.847000 120.860001 -0.139711 0.135545 0.045874 -0.019912 -144.050995 -2.000000 2.000000 0.000000 -105.698997 164.998993 -4.512870 -130.214996 0.132879 0.087189 -0.078154 0.065518 -161.022995 -6.000034 -3.077983 4.174921 43.945560 2.610889 2.952319 8.666805 -4.737770 0.987945 -30.539623 -4.485089 5.144456 41.401615 -2.181325 -3.038237 4.640655 6.285505 -0.916076 
4.641220 44.624619 -12.555999 6.140570 2.874070 -18.186899 -20.356100 3.512540 -4.290720 16.102100 5.559430 -1.779930 17.704901 0.798903 3.871540 15.004000 6.353700 2.503640 2.000000 -2.000000 0.000000 -89.876900 -34.009998 -166.005997 120.264000 -0.141022 0.136319 0.045867 -0.019858 -144.031006 -2.000000 2.000000 0.000000 -106.528000 163.921997 -5.525850 -128.466995 0.135875 0.089644 -0.081189 0.071918 -163.552994 -8.261547 -2.711405 4.535555 46.993233 2.324490 3.165917 13.624911 -7.944583 2.231684 -29.827610 -4.105732 6.004673 40.062798 -2.258084 -2.938765 4.036142 4.477895 -0.695565 
4.719733 45.045269 -12.189552 5.945420 2.952810 -20.649599 -20.077101 3.867680 -4.010250 15.760600 5.313470 -1.636470 17.290701 0.072431 4.376320 14.833900 6.223300 2.722370 2.000000 -2.000000 0.000000 -89.206001 -35.116299 -167.195007 119.667999 -0.142342 0.137080 0.045860 -0.019804 -144.011993 -2.000000 2.000000 0.000000 -107.397003 162.854996 -6.568160 -126.719002 0.138944 0.092007 -0.084502 0.078177 -166.082001 -10.591388 -2.344166 4.907623 50.220646 2.080227 3.364352 18.598566 -11.013042 3.675710 -29.051630 -3.744694 6.867051 38.599548 -2.300081 -2.866773 3.533154 2.658862 -0.477883 
4.771487 45.139027 -11.879387 5.831460 3.536340 -23.456900 -19.764200 4.016320 -3.557110 15.633800 5.224900 -1.416110 16.749399 -0.346985 4.855780 14.587100 6.171210 2.939120 2.000000 -2.000000 0.000000 -87.920898 -36.632999 -168.514008 119.130997 -0.143538 0.137754 0.045807 -0.019369 -143.854996 -2.000000 2.000000 0.000000 -107.289001 161.945999 -6.966340 -123.369003 0.145019 0.096268 -0.085309 0.079606 -166.667999 -13.224848 -2.009866 6.206296 53.417702 1.801638 3.557500 15.959023 -13.465487 3.693563 -29.061550 -3.545813 7.739045 39.250145 -2.244930 -2.902944 1.017681 0.251252 -0.302836 
4.823264 45.232635 -11.569221 5.688580 4.120300 -26.259501 -19.440201 4.165100 -3.103350 15.516700 5.146150 -1.205100 16.200199 -0.750830 5.339560 14.350400 6.128310 3.159120 2.000000 -2.000000 0.000000 -86.567703 -38.130501 -169.906998 118.584000 -0.144763 0.138429 0.045758 -0.018962 -143.709000 -2.000000 2.000000 0.000000 -107.191002 161.037003 -7.374290 -120.019997 0.151333 0.100166 -0.086144 0.081050 -167.263000 -15.799676 -1.646162 7.508731 56.485958 1.513896 3.747665 13.320639 -15.957866 3.579091 -29.148918 -3.350431 8.618026 40.056534 -2.215144 -2.962812 -1.545302 -2.144424 -0.195767 
4.798808 45.106754 -11.237709 5.271960 4.735830 -28.557501 -19.405500 4.273920 -2.952450 14.904600 5.597830 -1.196910 15.831500 -1.326910 5.923420 14.093500 6.056800 3.401610 2.000000 -2.000000 0.000000 94.718903 -141.220001 8.102050 118.555000 -0.144828 0.138465 0.045648 -0.018011 -143.367004 -2.000000 2.000000 0.000000 -106.469002 161.848999 -6.936800 -115.469002 0.160255 0.104859 -0.086840 0.082227 -167.751999 -17.963303 -1.018737 8.649208 58.636887 1.328246 3.848327 9.393656 -14.987402 2.512383 -28.758907 -3.539780 9.130829 41.382816 -2.163615 -3.032350 -2.036332 -2.485284 -0.141735 
4.774330 44.980709 -10.906236 4.835430 5.332630 -30.857401 -19.361200 4.392270 -2.803170 14.301100 6.038320 -1.187400 15.446500 -1.896820 6.498470 13.846200 5.975230 3.643110 2.000000 -2.000000 0.000000 96.044800 -140.610001 6.088130 118.536003 -0.144872 0.138489 0.045540 -0.017033 -143.016006 -2.000000 2.000000 0.000000 -105.755997 162.669998 -6.518880 -110.928001 0.169501 0.108821 -0.087546 0.083398 -168.240005 -20.136448 -0.359208 9.742061 60.809570 1.097699 3.979867 5.460929 -13.971053 1.517575 -28.447802 -3.727407 9.658788 42.845711 -2.116701 -3.108539 -2.612605 -2.811344 -0.086729 
4.682561 44.672329 -10.503872 4.905670 5.526680 -32.211300 -19.073700 4.354230 -3.042190 14.447800 6.088540 -1.323640 15.092400 -2.254820 7.101440 13.718400 5.968150 3.921220 2.000000 -2.000000 0.000000 97.663300 -139.871002 3.443380 118.897003 -0.144062 0.138045 0.045411 -0.015781 -142.565994 -2.000000 2.000000 0.000000 -104.400002 163.910004 -6.560980 -105.976997 0.179905 0.112292 -0.088334 0.084679 -168.776993 -22.492643 1.101520 10.107106 61.960312 0.977710 4.069134 2.862270 -11.771395 1.104435 -27.640928 -3.826850 9.695293 42.412884 -2.141382 -3.078966 -3.904051 0.086187 0.141897 
4.590792 44.363815 -10.101510 4.976020 5.720690 -33.555000 -18.796200 4.328640 -3.274800 14.594600 6.138750 -1.449860 14.729900 -2.605080 7.702220 13.580800 5.961210 4.198360 2.000000 -2.000000 0.000000 99.350601 -139.181000 0.749674 119.248001 -0.143276 0.137608 0.045293 -0.014529 -142.117004 -2.000000 2.000000 0.000000 -103.053001 165.139999 -6.642140 -101.026001 0.190569 0.114852 -0.089148 0.095741 -169.324005 -24.921455 2.593806 10.419796 63.177158 0.862473 4.105964 0.270602 -9.532646 0.765806 -26.782959 -3.938791 9.744207 41.864422 -2.143471 -3.062783 -5.184404 2.982647 0.448803 
4.523602 43.881432 -9.713943 5.573820 5.627730 -34.090099 -18.678600 4.397550 -3.451560 14.449200 5.972020 -1.535860 14.348300 -2.921910 7.915730 13.529600 5.856220 4.312360 2.000000 -2.000000 0.000000 100.345001 -138.572006 -1.065330 120.029999 -0.141540 0.136620 0.045422 -0.015890 -142.604996 -2.000000 2.000000 0.000000 -102.176003 167.822998 -7.908570 -95.615700 0.202426 0.116585 -0.090139 0.097283 -169.977997 -27.742891 4.448584 9.552946 63.570400 0.810643 4.126498 -2.267967 -7.072777 0.763086 -26.714100 -3.825323 8.667121 41.629066 -2.144718 -3.049079 -7.609359 4.916607 0.942519 
4.456412 43.398918 -9.326365 6.171560 5.544060 -34.625999 -18.561100 4.475880 -3.630910 14.303600 5.815050 -1.622060 13.967000 -3.239820 8.133770 13.478600 5.751200 4.416760 2.000000 -2.000000 0.000000 101.369003 -137.970993 -2.919430 120.810997 -0.139818 0.135609 0.045564 -0.017250 -143.093994 -2.000000 2.000000 0.000000 78.759903 9.514080 170.796005 -90.205498 0.214394 0.117193 -0.091147 0.098812 -170.632996 -30.640289 6.287416 8.615882 64.032265 0.771366 4.159905 -4.841672 -4.629065 0.871986 -26.647564 -3.697934 7.588005 41.415432 -2.121370 -3.055256 -10.073809 6.811347 1.524836 
4.491091 42.940208 -8.932835 6.261220 5.669330 -35.393799 -18.315201 4.399360 -3.498960 13.913900 5.558370 -1.603110 12.931100 -3.427680 8.157030 13.162100 5.622000 4.421440 2.000000 -2.000000 0.000000 102.540001 -137.565994 -4.979060 122.022003 -0.137176 0.133995 0.045593 -0.017522 -143.190994 -2.000000 2.000000 0.000000 79.666199 6.677540 168.550995 -83.770103 0.229686 0.135917 179.904999 179.895996 7.013910 -32.724380 7.372014 7.020680 62.628216 0.899847 4.093253 -6.435251 -2.953053 1.162207 -27.396372 -3.869253 7.051920 43.007652 -2.040509 -3.144141 -12.089713 7.586442 1.956305 
4.525759 42.481354 -8.539313 6.350940 5.794540 -36.171902 -18.068899 4.309740 -3.374040 13.514600 5.301730 -1.591360 11.904800 -3.616870 8.187060 12.835800 5.482920 4.426100 2.000000 -2.000000 0.000000 103.721001 -137.190002 -7.068060 123.233002 -0.134569 0.132325 0.045623 -0.017794 -143.289001 -2.000000 2.000000 0.000000 80.670197 3.880090 166.279007 -77.353996 0.244780 0.133407 179.901001 179.891006 4.650620 -34.910339 8.423726 5.362735 61.341766 1.023220 4.033057 -8.061583 -1.296842 1.514939 -28.175209 -4.043951 6.527256 44.707577 -1.957204 -3.245773 -14.175787 8.349790 2.457545 
4.575267 42.096325 -8.096318 6.517450 6.559270 -37.230099 -17.682501 4.069620 -3.148020 13.635100 5.051000 -1.500360 10.755500 -3.789700 8.335580 12.529800 5.372060 4.487310 2.000000 -2.000000 0.000000 -74.305298 -43.090801 169.768997 124.462997 -0.131956 0.130573 0.045720 -0.018636 -143.591995 -2.000000 2.000000 0.000000 81.781502 1.630740 163.451004 -70.478996 0.260534 0.128864 179.906006 179.893997 1.779510 -36.712429 9.031658 3.475546 58.289074 1.265481 3.894404 -8.529213 -0.209975 1.933395 -29.602251 -4.504208 7.250035 46.613987 -1.845397 -3.355852 -15.773798 8.822452 2.856656 
4.624784 41.711159 -7.653301 6.675800 7.323600 -38.295101 -17.306000 3.815090 -2.933450 13.755300 4.800130 -1.421040 9.596530 -3.964270 8.481990 12.224200 5.270540 4.550210 2.000000 -2.000000 0.000000 -72.311501 -43.293598 166.576004 125.694000 -0.129381 0.128764 0.045820 -0.019478 -143.893997 -2.000000 2.000000 0.000000 82.990303 -0.560027 160.585007 -63.604000 0.275630 0.122468 179.899994 179.878006 -1.101330 -38.593853 9.600106 1.530503 55.430992 1.493563 3.742389 -9.139124 0.819080 2.358743 -31.083740 -4.929384 7.984116 48.645832 -1.745607 -3.452744 -17.460827 9.276816 3.294340 
